
<svg id="favicon" data-name="favicon" xmlns="http://www.w3.org/2000/svg" xmlns:xlink="http://www.w3.org/1999/xlink" width="33.531" height="33.531" viewBox="0 0 33.531 33.531">
    <path id="Path_50278" data-name="Path 50278" d="M36.414,5.143A38.067,38.067,0,0,0,18.255.729,38.06,38.06,0,0,0,0,5.2V29.047a38.158,38.158,0,0,0,18.255,4.618A38.173,38.173,0,0,0,36.414,29.1Z" transform="translate(0 -0.134)" fill="#74af0d" fill-rule="evenodd"/>
    <path id="Path_50279" data-name="Path 50279" d="M26.865,5.527H13.89V9.945h9.851L20.7,12.989H6.43v4.418h9.851L2.668,31.017a37.973,37.973,0,0,0,4.5,1.749L19.4,20.532v9.849h4.418V16.112l3.043-3.044V22.92h4.419V5.527Z" transform="translate(-0.49 -1.015)" fill="#fff" fill-rule="evenodd"/>
</svg>
